<svg version="1.1" id="Layer_1" xmlns="http://www.w3.org/2000/svg" xmlns:xlink="http://www.w3.org/1999/xlink" x="0px" y="0px"
	 width="100%" viewBox="0 0 1920 1080" enable-background="new 0 0 1920 1080" xml:space="preserve">
<path fill="#768E71" opacity="1.000000" stroke="none" 
	d="
M869.197632,1080.665283 
	C581.232056,1081.000000 293.464142,1080.988159 5.696251,1081.117554 
	C1.530363,1081.119385 0.895615,1080.141602 0.896867,1076.198364 
	C1.008178,725.778015 1.000000,375.357666 1.000000,24.468658 
	C3.517434,20.877541 3.848772,16.699045 7.082458,13.690299 
	C17.492413,4.004482 27.945004,2.873453 39.575611,11.027899 
	C44.616135,14.561910 49.324696,18.577093 54.960117,21.225294 
	C67.987267,27.347025 76.612755,24.790573 84.150589,12.513984 
	C84.586678,11.803750 85.165733,11.127363 85.377373,10.344372 
	C87.544495,2.326970 93.601830,1.468158 100.633820,1.416607 
	C113.886063,1.319456 126.617981,3.853351 139.129578,7.896848 
	C147.659454,10.653535 155.892899,10.006045 163.780975,5.744427 
	C168.202011,3.355905 173.020294,2.570793 177.894089,2.033074 
	C185.433273,1.201282 191.881409,3.446136 197.078857,9.097176 
	C201.712692,14.135382 207.221252,18.238926 212.093903,23.024326 
	C223.402222,34.130177 237.833572,38.629654 252.707275,42.129856 
	C256.757629,43.083015 260.811096,44.049480 264.908997,44.806179 
	C283.878876,48.309093 301.249847,54.685402 315.535614,68.685089 
	C330.307159,83.160843 349.248840,91.801338 366.738647,102.410355 
	C376.136292,108.110794 385.591858,113.726845 395.138641,119.180916 
	C396.746674,120.099594 398.188324,121.208031 399.493408,122.504761 
	C410.012604,132.956894 420.770020,143.188599 430.860443,154.047256 
	C444.686432,168.925934 458.184631,184.108871 471.031738,199.863464 
	C491.075043,224.442871 509.686279,250.001770 524.707336,278.006134 
	C534.210144,295.722565 541.723206,314.223663 544.164185,334.363922 
	C545.023682,341.455322 545.137390,348.703339 543.476990,355.749603 
	C542.045227,361.825470 541.656799,367.854279 542.471436,374.051056 
	C544.162354,386.914886 544.442932,399.941956 546.889771,412.722260 
	C550.618347,432.197235 558.252502,450.289093 566.446106,468.194702 
	C573.581787,483.788757 581.464355,499.059052 587.030151,515.340393 
	C588.432617,519.442993 589.632080,523.601257 590.678955,527.807617 
	C592.827332,536.439514 596.407776,544.277954 601.353699,551.826416 
	C608.278931,562.395874 618.045898,565.998169 629.775269,566.479004 
	C633.591370,566.635498 637.419983,566.288391 641.191162,567.382996 
	C643.377075,568.017517 645.306885,568.982788 646.553345,570.803040 
	C655.447205,583.791138 663.348572,597.194519 665.406616,613.272522 
	C667.227173,627.495422 666.428528,641.593201 662.917175,655.378784 
	C660.500793,664.865173 661.294495,674.226135 662.031189,683.634583 
	C662.683777,691.968201 662.875916,700.311157 662.226501,708.581421 
	C661.609741,716.436157 657.724121,723.181396 652.154602,728.763550 
	C647.265747,733.663574 644.466614,739.561768 643.021423,746.213989 
	C642.809204,747.190918 642.430969,748.216736 642.613037,749.171753 
	C644.659668,759.907898 645.139343,771.313721 651.373962,780.613037 
	C659.363281,792.529663 662.313049,804.790527 660.986267,819.274048 
	C659.021973,840.717529 660.578674,862.231812 666.579651,883.137817 
	C669.822693,894.436157 677.197693,903.474548 683.891296,912.765503 
	C701.121338,936.681213 722.839783,955.987305 746.876709,972.810181 
	C761.501770,983.045898 776.789856,992.191101 792.608887,1000.452454 
	C794.840515,1001.617920 796.936157,1002.936401 798.700195,1004.756409 
	C815.746887,1022.344360 834.091553,1038.609253 851.151001,1056.181519 
	C856.835632,1062.037109 861.957214,1068.408936 867.134644,1074.710938 
	C868.379028,1076.225464 870.550537,1077.708008 869.197632,1080.665283 
z"/>
<path fill="#768E71" opacity="1.000000" stroke="none" 
	d="
M929.193481,1080.714844 
	C911.645752,1081.000000 894.291565,1081.000000 876.468628,1081.000000 
	C869.204712,1078.066406 865.343628,1071.963379 860.812012,1066.668945 
	C853.123169,1057.685913 845.096375,1049.117188 836.360107,1041.084839 
	C823.626831,1029.377441 811.817749,1016.680664 799.076477,1004.946594 
	C794.554565,1000.782166 789.133118,998.269592 783.911438,995.430725 
	C752.831604,978.533997 724.458557,958.085632 700.235229,932.164795 
	C688.372986,919.471313 678.033203,905.600159 669.644348,890.366882 
	C667.592468,886.640808 665.867249,882.582214 666.345093,877.783569 
	C669.336975,874.721252 673.455200,873.852539 676.260071,870.659485 
	C673.349243,873.609558 670.132996,875.018433 665.850403,874.183777 
	C661.997925,867.123535 662.461670,859.481384 661.565796,852.122253 
	C659.848206,838.012573 660.330627,823.925842 661.911499,809.782166 
	C662.717285,802.572449 660.658936,795.261230 656.560852,789.300110 
	C649.775452,779.429932 646.666504,768.457397 643.912231,757.039978 
	C642.340088,750.523071 643.116333,744.897644 645.644470,739.158875 
	C647.117371,735.815552 648.553467,732.374268 651.302063,729.807129 
	C662.048096,719.770447 664.536072,706.795471 663.131348,693.134216 
	C661.501038,677.279785 661.506470,661.797424 664.774902,646.035278 
	C668.934631,625.974365 666.639709,606.239746 657.430298,587.605896 
	C654.536621,581.751099 650.272156,576.785095 646.962402,571.189270 
	C644.718750,567.395813 640.561707,566.757751 636.443359,566.504272 
	C630.467285,566.136475 624.490601,565.732300 618.601868,564.557190 
	C614.053589,563.649597 610.230225,561.524109 607.038940,558.089111 
	C600.244507,550.775818 594.780945,542.676331 592.442993,532.861023 
	C587.028381,510.128540 576.517456,489.443909 566.846985,468.414948 
	C558.622681,450.530823 550.680481,432.517761 547.118713,413.005493 
	C544.576355,399.077362 543.783875,384.921112 542.570435,370.832458 
	C542.127625,365.690613 542.903931,360.591125 543.741577,355.452454 
	C545.722229,343.301147 544.622559,331.227509 541.505005,319.318878 
	C536.220581,299.133209 527.128845,280.644836 516.415588,262.884491 
	C497.586639,231.669876 475.135956,203.176270 451.016876,175.933487 
	C436.549652,159.592575 421.620392,143.698181 406.269592,128.179108 
	C399.835083,121.674103 392.550415,116.533836 384.618378,112.272285 
	C367.287872,102.961327 350.636169,92.503532 333.717651,82.499100 
	C325.513336,77.647644 318.329437,71.284470 311.347931,64.923729 
	C301.402313,55.862427 290.016418,50.398460 277.083313,47.443569 
	C267.340149,45.217499 257.597778,42.973114 247.858765,40.728897 
	C233.222305,37.356144 220.260254,31.080521 209.532166,20.432444 
	C204.684662,15.621101 199.724930,10.930860 194.563736,6.446881 
	C193.190338,5.253684 190.997498,4.246076 191.809082,1.342647 
	C408.354218,1.000000 624.708435,1.000000 841.531372,1.000000 
	C843.883667,2.344851 844.124207,4.112093 843.654175,6.281581 
	C840.823181,19.349939 836.688049,32.001438 831.518555,44.313786 
	C830.109253,47.670197 827.170349,49.719532 824.197693,51.628258 
	C817.178955,56.134899 810.307556,60.714584 805.353760,67.752510 
	C802.845093,71.316765 801.289001,74.752350 801.433899,79.199745 
	C801.754639,89.037888 800.710022,98.813736 799.268311,108.538445 
	C797.004578,123.808144 788.730042,136.097977 779.366394,147.721344 
	C772.094543,156.748108 766.865601,166.404053 765.842896,178.247543 
	C765.270203,184.880081 766.439636,191.201004 767.496643,197.574814 
	C770.418030,215.189072 774.024109,232.666672 781.308289,249.092484 
	C793.945679,277.589935 815.149048,295.108215 846.536926,299.429871 
	C860.398193,301.338318 874.359253,302.153534 888.267517,303.540894 
	C892.608093,303.973877 896.717407,304.948547 900.584473,307.217682 
	C919.556091,318.349884 938.527405,329.487762 956.740234,341.834106 
	C962.495300,345.735413 968.966553,344.556885 975.097961,345.306793 
	C984.912903,346.507141 994.531067,348.224701 1003.765320,351.765045 
	C1011.661316,354.792358 1014.400208,358.879028 1014.487427,367.307587 
	C1014.521973,370.640442 1014.495422,373.973633 1014.512207,377.306732 
	C1014.539734,382.773621 1015.998230,387.806366 1018.808167,392.505554 
	C1021.724609,397.383057 1025.045898,401.962280 1028.624023,406.360229 
	C1034.881592,414.051697 1042.949097,418.621063 1052.690552,420.424133 
	C1059.743164,421.729523 1066.883545,422.305969 1073.974976,423.280457 
	C1086.061157,424.941315 1096.715820,429.558167 1106.764771,436.673645 
	C1121.403442,447.039032 1133.118286,460.074829 1143.887451,474.090576 
	C1152.812500,485.706177 1164.213623,494.685089 1174.940552,504.385864 
	C1182.103271,510.863495 1189.374023,517.229919 1196.499756,523.746033 
	C1200.904907,527.774170 1202.709229,533.528687 1204.855713,538.938416 
	C1208.129028,547.188599 1209.311768,556.012207 1211.656372,564.522339 
	C1213.945679,572.831787 1217.208984,580.661926 1222.479492,587.424988 
	C1233.081055,601.028564 1234.286621,616.500854 1232.997070,632.898376 
	C1232.084595,644.501282 1230.643188,656.073975 1230.425171,667.742798 
	C1230.332520,672.698792 1231.755371,676.814148 1234.731079,680.672058 
	C1241.760132,689.784790 1249.658813,698.148376 1257.108887,706.896729 
	C1265.331055,716.551758 1271.281128,727.396851 1275.381714,739.355164 
	C1278.730225,749.120544 1281.914673,758.971741 1287.304810,767.889404 
	C1290.345581,772.920105 1294.263672,777.129150 1298.618286,781.111694 
	C1311.039673,792.471924 1322.629395,804.693298 1334.482666,816.639526 
	C1336.800415,818.975464 1337.478638,822.130981 1338.499512,825.132385 
	C1344.048584,841.444275 1346.822021,858.383728 1350.079102,875.226318 
	C1354.759766,899.431519 1359.446289,923.635742 1364.139160,947.838745 
	C1365.460938,954.655273 1365.567383,954.865662 1359.764893,958.179260 
	C1340.148804,969.381165 1330.582275,987.832764 1324.048218,1008.190857 
	C1318.096558,1026.734253 1316.798218,1045.407471 1325.368652,1063.791382 
	C1327.197144,1067.713623 1327.337402,1072.195557 1327.967773,1076.480713 
	C1328.208008,1078.113892 1327.815430,1079.406128 1326.275879,1080.722656 
	C1194.979126,1081.000000 1063.958252,1081.000000 932.468628,1081.000000 
	C930.114258,1077.914429 928.335205,1074.776978 927.404541,1071.675171 
	C927.572449,1074.428833 930.689331,1076.921387 929.193481,1080.714844 
z"/>
<path fill="#768E71" opacity="1.000000" stroke="none" 
	d="
M846.721252,1.279835 
	C1045.020874,1.000000 1243.041870,1.000000 1441.531372,1.000000 
	C1443.703369,3.037626 1442.413940,4.800297 1441.355835,6.444037 
	C1431.706665,21.433331 1428.971191,38.256481 1428.554810,55.598595 
	C1428.258789,67.924187 1428.487671,80.262589 1428.500000,92.595261 
	C1428.511597,104.162338 1427.030640,115.348228 1422.671265,126.279793 
	C1416.417725,141.961212 1411.873779,158.212738 1411.552246,175.262375 
	C1411.030396,202.941238 1419.416138,227.650818 1436.544800,249.505875 
	C1446.305908,261.960602 1456.389893,274.181519 1465.477661,287.151733 
	C1478.698486,306.020813 1487.502319,327.086578 1495.354126,348.558380 
	C1506.517944,379.087463 1519.361572,408.937775 1531.435181,439.099243 
	C1537.111938,453.280640 1539.490845,468.293671 1541.384521,483.337433 
	C1542.818359,494.726807 1543.768677,506.169830 1543.593506,517.701111 
	C1543.512817,523.002808 1542.520874,527.768433 1540.187866,532.560791 
	C1531.503662,550.400513 1523.257690,568.391235 1519.817261,588.216736 
	C1517.447266,601.873352 1518.226562,615.000488 1523.346558,627.953857 
	C1531.330322,648.152100 1542.262817,666.906189 1551.590942,686.443359 
	C1556.403687,696.523071 1560.788818,706.748474 1564.166382,717.435669 
	C1570.802979,738.434570 1566.826660,757.938416 1556.341553,776.547913 
	C1546.800171,793.482117 1534.253418,808.256714 1521.784180,823.012451 
	C1506.375244,841.247192 1493.245728,860.718018 1485.718506,883.606506 
	C1484.052368,888.673035 1481.616455,893.436951 1479.275513,898.234436 
	C1474.489624,908.042847 1467.525391,915.345581 1457.567627,920.331116 
	C1443.221802,927.513794 1428.133667,932.442322 1412.836426,936.876221 
	C1399.845215,940.641724 1387.253662,945.464172 1374.742798,950.539062 
	C1373.970825,950.852295 1373.224976,951.233215 1372.439941,951.510620 
	C1367.428467,953.281738 1365.421997,952.236206 1364.312500,947.002869 
	C1360.408569,928.587708 1357.193115,910.035889 1353.427979,891.594055 
	C1348.866455,869.252014 1345.929932,846.550537 1338.575562,824.815613 
	C1337.203247,820.759705 1335.378296,817.253418 1332.309204,814.231201 
	C1320.672363,802.771667 1309.401733,790.933655 1297.541870,779.710205 
	C1289.567383,772.163635 1284.203979,763.180176 1280.489014,753.039001 
	C1279.170776,749.440491 1277.643677,745.896179 1276.580200,742.230347 
	C1271.323608,724.110901 1260.583130,709.439392 1247.945190,695.899658 
	C1243.853638,691.516113 1240.236450,686.703308 1236.215942,682.266602 
	C1230.952881,676.458679 1229.910400,669.832275 1230.683105,662.344482 
	C1232.168701,647.947510 1233.757446,633.552368 1233.546387,619.025085 
	C1233.402100,609.091553 1231.330811,599.802795 1225.345581,591.736023 
	C1217.143433,580.681519 1211.985474,568.392212 1209.461670,554.896606 
	C1208.636353,550.483093 1207.334961,546.161377 1206.047485,541.845337 
	C1203.004761,531.645874 1197.258667,523.605286 1189.086548,516.584045 
	C1167.995117,498.463013 1147.910278,479.415588 1130.208984,457.677795 
	C1112.894531,436.415009 1090.610840,422.208893 1061.815674,421.526489 
	C1038.380859,420.971069 1025.753296,406.148254 1016.350403,387.086212 
	C1015.362244,385.083130 1015.556091,382.859619 1015.507080,380.695831 
	C1015.398071,375.870026 1015.643555,371.046631 1015.037781,366.219482 
	C1014.091125,358.675812 1010.259277,353.775208 1003.003906,351.201050 
	C991.423584,347.092346 979.472839,345.074829 967.279663,344.598450 
	C962.922729,344.428223 959.254456,343.376312 955.663025,340.929688 
	C939.129333,329.666260 921.806091,319.666351 904.737976,309.252808 
	C896.846069,304.437805 888.367188,303.152313 879.503906,302.464203 
	C867.561340,301.536987 855.614136,300.629547 843.765991,298.719086 
	C812.528809,293.682098 792.399902,275.134064 780.497131,246.686157 
	C772.056702,226.513306 767.786926,205.207367 765.986694,183.610199 
	C765.206482,174.249817 767.071167,164.363480 773.506165,156.241318 
	C777.432068,151.286148 780.902405,145.961807 784.807983,140.977737 
	C796.399414,126.185379 800.949219,109.079086 801.494629,90.637863 
	C801.538940,89.139153 801.694580,87.609093 801.472778,86.142792 
	C799.376831,72.288124 806.553833,62.909267 817.405823,56.591820 
	C827.990051,50.430229 834.119751,41.993759 837.084656,30.378435 
	C838.975281,22.971882 841.559937,15.726483 843.511475,8.311066 
	C844.138184,5.929297 844.389893,3.340679 846.721252,1.279835 
z"/>
<path fill="#768E71" opacity="1.000000" stroke="none" 
	d="
M1462.705078,1.283542 
	C1614.116577,1.000000 1765.233276,1.024222 1916.349731,0.875861 
	C1920.613159,0.871675 1921.098145,1.998505 1921.096680,5.846735 
	C1920.990845,291.585358 1921.000000,577.324036 1921.000000,863.531372 
	C1919.440552,866.116760 1917.199463,866.450134 1914.781128,866.477966 
	C1888.636353,866.779053 1862.515991,866.022095 1836.410400,864.670471 
	C1827.769043,864.223083 1819.108398,864.063171 1810.470947,863.756470 
	C1789.843018,863.023865 1769.250366,861.707947 1748.676758,860.313782 
	C1723.949463,858.638184 1699.258789,856.341797 1674.581787,853.910339 
	C1647.558228,851.247681 1620.861572,845.987244 1593.792603,843.956055 
	C1578.693970,842.823242 1563.496216,842.573364 1548.507935,845.857483 
	C1531.215332,849.646423 1518.860718,860.323792 1508.729614,874.158264 
	C1501.938843,883.431458 1495.590332,893.025696 1488.451172,902.046692 
	C1485.853394,905.329468 1482.895752,908.249573 1479.718872,910.953064 
	C1478.298340,912.161926 1476.678223,912.441833 1475.183838,911.151733 
	C1473.697510,909.868530 1473.666260,908.203796 1474.695801,906.641724 
	C1482.574463,894.688904 1486.652222,881.025513 1492.175293,868.009949 
	C1500.574951,848.214905 1514.574219,832.258179 1528.023438,815.921631 
	C1538.188965,803.573608 1548.232544,791.157349 1556.214966,777.182312 
	C1568.743896,755.247803 1570.865845,732.750610 1561.675781,709.011353 
	C1553.527588,687.962952 1542.387451,668.392090 1532.659424,648.126282 
	C1529.630859,641.816956 1526.694824,635.481750 1523.951538,629.037476 
	C1518.487061,616.199707 1517.269043,603.016357 1519.770874,589.392090 
	C1522.372559,575.225525 1526.559692,561.553162 1532.881348,548.596191 
	C1536.023560,542.155823 1539.014771,535.649719 1542.050415,529.161499 
	C1543.711060,525.612061 1544.658447,521.935730 1544.462769,518.040039 
	C1543.224243,493.381348 1541.101562,468.789948 1533.826660,445.075714 
	C1530.121582,432.997498 1524.565674,421.523193 1519.702881,409.834656 
	C1509.910156,386.296112 1500.633301,362.557465 1491.827393,338.632202 
	C1481.828735,311.466614 1467.375610,286.910370 1448.772095,264.721069 
	C1439.885864,254.122162 1431.763672,242.940018 1424.790771,230.934799 
	C1416.814575,217.202209 1413.386475,202.344269 1412.440430,186.632355 
	C1411.246338,166.796341 1414.479004,147.767319 1421.964844,129.460617 
	C1427.299438,116.414948 1429.410522,102.985405 1428.559814,88.926445 
	C1427.632812,73.607704 1429.143188,58.298168 1429.730591,43.004585 
	C1430.160400,31.817114 1433.599731,21.075958 1438.725586,10.985803 
	C1441.790649,4.952454 1446.227051,1.673147 1453.339233,2.308567 
	C1456.319092,2.574796 1459.514893,3.278479 1462.705078,1.283542 
z"/>
<path fill="#768E71" opacity="1.000000" stroke="none" 
	d="
M1920.697510,869.698730 
	C1921.000000,938.629028 1920.965576,1007.258118 1921.088867,1075.886963 
	C1921.095947,1079.809570 1920.660156,1081.138794 1916.118286,1081.135132 
	C1722.391357,1080.978027 1528.664307,1081.000000 1334.468628,1081.000000 
	C1329.380737,1080.261108 1328.178223,1076.861938 1327.626587,1072.899048 
	C1327.097656,1069.099854 1326.524414,1065.271729 1324.911133,1061.766968 
	C1319.429810,1049.859741 1318.435425,1037.483887 1320.445801,1024.656250 
	C1323.446777,1005.507019 1330.450195,988.046936 1342.528076,972.859985 
	C1351.637573,961.405518 1364.556885,955.312012 1377.573853,949.617859 
	C1391.176758,943.667358 1405.374268,939.368469 1419.524170,934.933594 
	C1427.875854,932.315857 1436.618652,932.466797 1445.102661,930.682312 
	C1462.008545,927.126404 1475.183716,917.863892 1486.251587,905.187134 
	C1492.827637,897.654846 1498.432251,889.348206 1504.120483,881.129700 
	C1508.772705,874.408142 1513.955566,868.171997 1519.595459,862.217041 
	C1530.158936,851.063599 1543.264771,846.140991 1558.160034,844.446594 
	C1580.924805,841.857178 1603.360596,844.798340 1625.771606,848.005188 
	C1650.661133,851.566833 1675.625366,854.340393 1700.662109,856.629395 
	C1724.685181,858.825745 1748.733398,860.717224 1772.801025,862.190552 
	C1789.229370,863.196228 1805.682251,864.029236 1822.145386,864.629333 
	C1847.259155,865.544861 1872.357544,866.583191 1897.496338,866.699158 
	C1903.442749,866.726501 1909.434692,867.534424 1915.430786,867.568481 
	C1917.284424,867.578979 1919.114868,867.773193 1920.697510,869.698730 
z"/>
<path fill="#F8A506" opacity="1.000000" stroke="none" 
	d="
M1921.000000,869.571533 
	C1918.112061,868.842163 1915.069214,869.293457 1912.104004,869.271606 
	C1857.459717,868.868164 1802.885742,866.572510 1748.379761,862.816467 
	C1702.864746,859.679993 1657.484131,855.206726 1612.325195,848.510071 
	C1592.531006,845.574707 1572.595093,844.459167 1552.602783,847.508545 
	C1537.656494,849.788147 1525.902954,857.187622 1516.366577,868.612488 
	C1508.453125,878.093079 1501.895264,888.553833 1494.636353,898.507141 
	C1480.133179,918.393860 1461.469360,931.735840 1436.586548,934.542297 
	C1414.923340,936.985596 1395.242432,945.433838 1375.222778,953.092102 
	C1347.086304,963.855530 1332.427734,985.673096 1325.031982,1013.531677 
	C1321.616943,1026.395386 1319.796997,1039.535889 1324.012817,1052.439331 
	C1326.594116,1060.339844 1329.650146,1068.058716 1330.590454,1076.356323 
	C1330.853271,1078.676270 1332.750854,1078.989258 1333.924316,1080.631592 
	C1331.629395,1081.000000 1329.258911,1081.000000 1326.444092,1081.000000 
	C1325.649902,1074.008179 1324.812378,1067.100708 1321.831787,1060.664673 
	C1316.124390,1048.340088 1316.083252,1035.462769 1318.237671,1022.453674 
	C1320.741455,1007.335022 1326.093872,993.234619 1334.165161,980.177307 
	C1340.421021,970.057007 1348.409790,961.691284 1359.023926,956.164429 
	C1362.271118,954.473572 1362.867310,952.684143 1362.161255,949.128235 
	C1355.350464,914.833130 1348.920410,880.461914 1342.020386,846.185181 
	C1340.318481,837.731323 1337.291016,829.545288 1334.897705,821.229004 
	C1334.306763,819.175720 1332.707642,817.923767 1331.301514,816.528076 
	C1319.119507,804.435425 1307.056030,792.218567 1294.669678,780.338501 
	C1288.266968,774.197632 1283.636108,767.059265 1280.231323,758.993774 
	C1279.648804,757.613403 1278.986450,756.247253 1278.587402,754.811646 
	C1271.776978,730.300659 1258.938721,709.369568 1240.785645,691.695923 
	C1230.720947,681.897095 1226.033325,670.974792 1228.621216,656.398987 
	C1230.849854,643.846497 1231.344116,630.915100 1231.011719,618.041382 
	C1230.782227,609.152222 1229.121338,600.752625 1223.660645,593.586914 
	C1214.024414,580.941833 1208.968018,566.484863 1205.973145,551.093872 
	C1205.181152,547.023621 1203.949097,543.014526 1202.619263,539.078674 
	C1200.291260,532.188232 1196.562988,526.319641 1190.862061,521.483582 
	C1180.063599,512.323425 1169.822632,502.506348 1159.030640,493.338287 
	C1147.866333,483.853973 1139.682495,471.808197 1130.117676,460.951324 
	C1111.860840,440.228302 1090.836548,424.760590 1061.683716,424.073181 
	C1037.977173,423.514191 1024.405640,408.684692 1014.426453,389.324860 
	C1012.074707,384.762421 1012.499634,379.581146 1012.570618,374.582581 
	C1012.809326,357.769775 1010.955017,355.295166 994.650330,351.067841 
	C984.611694,348.465088 974.404114,347.017334 964.028381,346.933350 
	C961.280579,346.911072 958.975037,346.276489 956.620422,344.642517 
	C937.444397,331.335083 917.323059,319.539673 897.069031,307.978210 
	C891.822144,304.983185 885.719666,305.665039 879.971558,305.082397 
	C866.885071,303.755859 853.728455,303.113007 840.757690,300.720001 
	C810.991760,295.228363 791.287537,277.284851 779.349243,250.307236 
	C769.890747,228.933273 765.247864,206.128113 763.486328,183.015427 
	C762.769592,173.611771 764.378845,163.396591 771.129028,155.223984 
	C775.048889,150.478180 778.341431,145.218552 782.183655,140.403564 
	C793.456604,126.276772 798.351257,109.996742 798.877197,92.178932 
	C798.941162,90.013573 799.286621,87.801407 798.974243,85.688911 
	C796.767212,70.761955 804.921570,61.180199 816.406738,54.392700 
	C825.960022,48.746876 831.699097,41.353786 834.381592,30.709820 
	C836.815674,21.051409 840.955444,11.835010 842.034302,1.404147 
	C843.388916,1.000000 844.777771,1.000000 846.583374,1.000000 
	C844.593079,16.911371 839.406677,31.981237 833.191589,46.745033 
	C832.083557,49.377209 829.903687,50.831566 827.666809,52.317116 
	C819.920288,57.461899 811.815918,62.118599 806.512390,70.253349 
	C804.887268,72.746033 803.845886,75.010872 803.895813,78.011688 
	C804.051147,87.348709 803.491028,96.647003 802.259277,105.922775 
	C800.781555,117.050850 796.835999,127.176331 790.603210,136.439743 
	C787.907593,140.446045 785.399109,144.667175 782.167175,148.208038 
	C769.338196,162.263519 766.044556,178.371216 769.747070,196.801926 
	C772.734558,211.673462 775.502014,226.544189 780.657104,240.854782 
	C793.225037,275.743317 817.618652,295.222321 854.928284,298.018402 
	C866.221497,298.864777 877.487305,300.072510 888.769897,301.066345 
	C893.314026,301.466614 897.500732,302.715607 901.515320,305.002808 
	C920.917297,316.056763 940.047913,327.545837 958.479309,340.160919 
	C960.556641,341.582703 962.606018,341.973267 964.985413,342.089355 
	C978.508850,342.748932 991.811035,344.551483 1004.634216,349.274200 
	C1013.056641,352.376190 1017.180908,358.166046 1017.179993,367.046783 
	C1017.179626,370.879059 1017.188904,374.711395 1017.215332,378.543549 
	C1017.248230,383.313965 1018.824280,387.484161 1021.095032,391.742157 
	C1031.272461,410.827087 1047.088257,419.554779 1068.544556,420.190735 
	C1083.619141,420.637573 1097.132080,426.200775 1109.343506,435.570862 
	C1120.931396,444.462494 1131.557373,454.074951 1140.313721,465.778687 
	C1148.830811,477.162720 1158.759644,487.203949 1169.627808,496.380890 
	C1177.518433,503.043610 1184.799683,510.446442 1192.858398,516.886414 
	C1200.811523,523.241943 1205.414673,531.402039 1208.185547,540.859680 
	C1209.588379,545.648499 1210.933350,550.475769 1211.905518,555.365051 
	C1214.277222,567.292603 1218.354614,578.463867 1225.898804,588.135925 
	C1236.106201,601.222168 1236.566406,616.427246 1235.566650,631.941101 
	C1234.763306,644.406738 1233.833984,656.864807 1232.871582,669.319275 
	C1232.639404,672.323853 1233.521973,674.777222 1235.266846,677.193665 
	C1241.039429,685.188416 1247.721680,692.406067 1254.312744,699.692932 
	C1264.955688,711.459534 1273.264038,724.555237 1278.144531,739.745239 
	C1279.671265,744.496948 1281.508667,749.150574 1283.261719,753.827332 
	C1286.697021,762.991821 1291.677246,771.022339 1298.905884,777.864380 
	C1311.247314,789.545593 1323.090820,801.751404 1335.241821,813.636353 
	C1337.590210,815.933411 1339.009033,818.508179 1340.032104,821.603210 
	C1349.378296,849.874023 1352.918457,879.406372 1358.992920,908.384460 
	C1361.656982,921.093201 1364.033813,933.864319 1366.361084,946.639954 
	C1367.029907,950.311584 1368.071167,951.335815 1371.846558,949.557739 
	C1387.708130,942.087463 1404.404297,936.875732 1421.207642,932.008301 
	C1433.230347,928.525757 1444.829712,923.990356 1456.149536,918.633301 
	C1465.285400,914.309814 1471.997681,907.678284 1476.452881,898.755737 
	C1479.126709,893.401001 1481.884521,888.005127 1483.754028,882.346741 
	C1490.825073,860.945129 1502.734375,842.468079 1516.991089,825.265015 
	C1526.981079,813.210510 1537.239136,801.356934 1546.179443,788.464111 
	C1549.885498,783.119507 1553.259521,777.584473 1556.289795,771.822510 
	C1566.214722,752.951111 1567.786499,733.578430 1560.571411,713.388916 
	C1554.887573,697.484253 1547.122192,682.582825 1539.544556,667.568787 
	C1534.668213,657.907288 1530.084961,648.097168 1525.158081,638.462036 
	C1514.647705,617.907288 1514.008789,596.784912 1520.397583,574.882568 
	C1524.999634,559.105286 1531.832764,544.345093 1539.167480,529.763306 
	C1541.024536,526.071167 1541.856445,522.409363 1541.722290,518.275330 
	C1540.947144,494.393463 1538.608398,470.723999 1531.993652,447.674408 
	C1528.727417,436.293030 1523.571289,425.594055 1518.955444,414.725342 
	C1506.584839,385.596893 1496.053345,355.748108 1484.086914,326.465424 
	C1476.541138,308.000275 1466.457642,291.014923 1453.992188,275.416077 
	C1445.673584,265.006622 1437.362915,254.591217 1429.738403,243.636993 
	C1407.499634,211.686813 1403.793823,176.763000 1415.792847,140.730835 
	C1422.904053,119.376457 1427.092163,98.273163 1426.324463,75.806190 
	C1425.820312,61.051975 1425.648804,46.144615 1428.920410,31.508360 
	C1431.344604,20.663376 1434.851196,10.355969 1442.071045,1.348319 
	C1448.687622,1.000000 1455.375366,1.000000 1462.531494,1.000000 
	C1462.110229,3.894872 1459.741211,4.230281 1457.407715,3.736649 
	C1446.646240,1.460127 1441.983032,7.908811 1438.562134,16.471165 
	C1434.129883,27.564938 1431.502441,39.038883 1431.279907,50.983814 
	C1430.941528,69.144791 1430.750732,87.308830 1430.581421,105.472351 
	C1430.546753,109.192253 1429.815430,112.698372 1428.693604,116.227264 
	C1424.109497,130.646896 1417.814087,144.588974 1415.708374,159.712875 
	C1411.788696,187.864258 1415.464233,214.490677 1432.013062,238.484070 
	C1438.453369,247.821533 1445.095093,257.010651 1452.390747,265.672607 
	C1471.075562,287.856903 1484.869507,312.784943 1494.733765,339.955841 
	C1506.159546,371.428009 1518.937866,402.361694 1531.849487,433.238373 
	C1539.863770,452.403290 1542.202026,472.706146 1545.125732,492.994995 
	C1548.074707,513.458679 1545.578979,532.325378 1534.738647,550.434875 
	C1527.994873,561.700928 1524.982300,574.789368 1522.369751,587.749146 
	C1519.341431,602.772034 1521.083130,617.135742 1527.175293,631.207397 
	C1534.663696,648.504578 1543.832764,664.949463 1552.146118,681.826172 
	C1557.228394,692.143188 1561.814819,702.647461 1565.579956,713.536194 
	C1572.559204,733.720703 1570.792603,753.132141 1561.397095,772.140625 
	C1553.947754,787.211853 1543.728516,800.328613 1533.180176,813.249451 
	C1525.909790,822.154907 1518.598145,831.029968 1511.504639,840.075317 
	C1502.604248,851.424927 1495.664185,863.872009 1490.764526,877.496155 
	C1486.990356,887.990112 1483.061523,898.463806 1476.599243,907.721924 
	C1476.017090,908.556030 1475.617188,909.419434 1476.183838,910.647339 
	C1478.904053,910.445557 1480.094482,908.229736 1481.583130,906.646240 
	C1488.916016,898.845642 1494.719116,889.870300 1500.895142,881.181213 
	C1503.693726,877.243835 1506.594238,873.378601 1509.473022,869.498840 
	C1524.522827,849.217041 1545.341187,841.389282 1569.884277,840.972717 
	C1590.649292,840.620239 1611.123779,843.194763 1631.549438,846.262024 
	C1664.855835,851.263611 1698.375488,854.174438 1731.917480,856.794678 
	C1792.738892,861.545837 1853.673950,863.892151 1914.672729,864.620850 
	C1916.499146,864.642639 1918.327393,864.510376 1920.577393,864.224976 
	C1921.000000,865.714355 1921.000000,867.428711 1921.000000,869.571533 
z"/>
<path fill="#F8A506" opacity="1.000000" stroke="none" 
	d="
M191.531357,1.000000 
	C201.937927,9.814391 210.916321,19.764938 221.680557,27.571144 
	C232.567520,35.466339 245.733063,37.863144 258.522675,40.923935 
	C262.083374,41.776077 265.657684,42.595406 269.257965,43.253670 
	C286.963348,46.490875 302.694519,53.267578 316.140320,65.857452 
	C335.286499,83.784805 359.168335,94.752502 381.509888,107.905594 
	C391.157379,113.585327 400.457611,119.366302 408.461243,127.414993 
	C444.239746,163.395020 478.067413,201.005630 506.532349,243.148270 
	C522.055420,266.130341 535.797729,290.063568 543.232117,317.085266 
	C547.404541,332.250397 548.913330,347.501190 544.502991,362.922058 
	C543.456055,366.582703 544.738831,370.211426 545.070129,373.821808 
	C547.061951,395.526581 548.418274,417.316345 556.405640,438.018555 
	C563.007996,455.131104 570.980164,471.610413 578.579956,488.266632 
	C584.945129,502.217133 590.960022,516.292419 594.225403,531.363892 
	C596.303894,540.957092 601.872925,548.681030 607.882812,556.021912 
	C613.334839,562.681396 621.415466,563.274780 629.292969,563.840332 
	C633.437134,564.137817 637.615967,563.816895 641.718140,564.841064 
	C645.685059,565.831421 648.702759,567.813049 650.217651,571.784973 
	C650.685364,573.011353 651.294434,574.247131 652.101746,575.271362 
	C665.147339,591.822510 669.273621,611.025330 668.721619,631.551941 
	C668.506531,639.549683 667.885071,647.637634 665.548157,655.269104 
	C662.560486,665.025391 663.941956,674.716736 664.662109,684.425903 
	C665.366150,693.917236 666.333374,703.371765 663.954041,712.739319 
	C662.204407,719.627502 658.809692,725.463989 653.774597,730.717407 
	C647.104858,737.676331 643.010742,745.926941 646.231445,756.088379 
	C646.582458,757.195740 646.810730,758.345642 647.041870,759.486755 
	C648.893311,768.628784 651.316101,777.345459 656.933899,785.261353 
	C663.855469,795.014404 664.965515,806.253906 663.518311,818.216675 
	C661.323975,836.355530 663.268555,854.450195 666.791260,872.742676 
	C668.884216,873.908508 669.384827,875.224365 668.218689,877.416992 
	C668.352112,882.870239 670.385193,887.383728 672.930298,891.722107 
	C692.430847,924.963501 719.490601,950.918213 750.949524,972.621460 
	C762.736938,980.753418 774.908569,988.296509 787.658813,994.799683 
	C794.281555,998.177673 799.989868,1002.447144 805.220703,1007.680176 
	C827.674866,1030.143555 851.833130,1050.949463 871.592224,1076.014526 
	C872.921204,1077.700439 875.852600,1077.536377 875.995667,1080.637329 
	C873.958313,1081.000000 871.916687,1081.000000 869.437500,1081.000000 
	C862.061279,1071.216675 854.178467,1062.190796 845.720032,1053.754272 
	C830.149353,1038.223755 814.165649,1023.107788 798.423584,1007.747864 
	C795.648804,1005.040527 792.626343,1002.856506 789.192627,1001.050842 
	C752.475769,981.742004 718.959961,958.221130 691.855530,926.390869 
	C687.432678,921.196838 683.543823,915.551514 679.208191,910.279175 
	C665.478516,893.583008 660.436279,873.921875 658.942200,852.872131 
	C657.960876,839.046997 657.459717,825.293701 659.277222,811.491699 
	C660.315369,803.608398 658.464417,795.913391 653.919128,789.598267 
	C646.983948,779.962646 644.677673,768.932800 641.593262,757.877258 
	C639.041992,748.732910 641.420410,741.203735 645.411316,733.564636 
	C646.399597,731.673096 647.675110,729.758179 649.276062,728.389038 
	C658.159973,720.791870 660.862915,710.635010 660.735718,699.667725 
	C660.616150,689.355896 659.676208,679.044678 658.822571,668.756042 
	C658.582520,665.862671 658.811829,663.196472 659.516602,660.419678 
	C664.592834,640.420715 666.257324,620.371277 660.009888,600.273804 
	C657.562683,592.401306 653.835938,585.188354 648.734009,578.699036 
	C648.425110,578.306152 647.937195,577.969543 647.813293,577.528015 
	C645.349426,568.747437 638.334900,568.851013 631.180359,568.653992 
	C621.594543,568.390015 611.850708,567.588135 604.973450,559.807861 
	C599.595215,553.723450 594.664001,547.151245 591.820740,539.343384 
	C591.479187,538.405518 591.085938,537.474060 590.867920,536.505554 
	C585.478882,512.563660 574.505310,490.821411 564.280823,468.775970 
	C555.014404,448.796173 546.383240,428.551849 543.592346,406.457153 
	C541.860779,392.748566 540.750671,378.961304 539.394470,365.206085 
	C539.314880,364.398987 539.398743,363.524628 539.626587,362.745911 
	C545.178040,343.763763 541.820190,325.441681 535.332275,307.436005 
	C524.772095,278.128876 507.969849,252.325226 489.640228,227.463196 
	C462.579620,190.758453 431.957153,157.168610 399.417694,125.284462 
	C397.613098,123.516235 395.599762,122.096519 393.433167,120.823830 
	C383.811768,115.172089 374.321045,109.289543 364.592010,103.831024 
	C342.025665,91.170082 320.290527,77.331589 301.041534,59.900398 
	C296.141052,55.462685 290.074463,53.622437 283.985687,52.029697 
	C270.783752,48.576267 257.496613,45.445206 244.226105,42.258270 
	C229.774475,38.787685 217.321243,31.872936 206.813354,21.306442 
	C202.002121,16.468386 196.755676,12.065150 191.750595,7.417326 
	C186.237335,2.297605 179.931320,1.819312 173.143066,4.146268 
	C171.413925,4.739000 169.629440,5.324798 168.079025,6.259748 
	C156.764816,13.082586 145.149307,12.686205 133.004135,8.589389 
	C123.729759,5.460946 114.394714,2.413797 104.430267,1.761878 
	C96.096085,1.216618 90.702065,3.518294 86.776878,11.781020 
	C79.268639,27.586243 67.091354,30.682724 51.676750,22.033058 
	C48.924904,20.488903 46.348759,18.624416 43.733440,16.846144 
	C40.979523,14.973634 38.364071,12.884263 35.534660,11.138347 
	C24.778524,4.501158 9.987485,9.040634 4.548315,20.523281 
	C3.906528,21.878159 4.238782,24.118803 1.369500,24.006924 
	C1.000000,21.629442 1.000000,19.258884 1.000000,16.444164 
	C4.007206,5.584410 12.042117,2.648725 21.690069,1.983544 
	C30.872250,1.350476 39.107849,3.443173 46.397873,9.362828 
	C50.238716,12.481679 54.217628,15.552577 58.986282,17.310095 
	C68.148407,20.686857 73.652435,18.892433 79.002220,10.722234 
	C81.174438,7.404836 82.450485,3.358761 86.721542,1.255053 
	C99.687561,1.000000 112.375122,1.000000 125.531342,1.000000 
	C132.992905,2.479254 140.093384,3.285537 147.167572,4.200341 
	C153.738358,5.050047 159.882996,2.198291 166.642151,1.223553 
	C175.020905,1.000000 183.041809,1.000000 191.531357,1.000000 
z"/>
<path fill="#788E6F" opacity="1.000000" stroke="none" 
	d="
M86.531342,1.000000 
	C84.962555,6.671553 81.978065,11.861044 78.291115,16.562075 
	C73.971573,22.069677 66.994751,23.329660 59.150204,20.465378 
	C54.390770,18.727564 50.400402,15.695327 46.361710,12.751927 
	C45.284924,11.967165 44.210491,11.178778 43.121098,10.411767 
	C26.965273,-0.963059 14.629676,0.623082 1.310704,15.871953 
	C1.000000,11.021757 -0.932967,4.183766 1.554300,1.598575 
	C3.947764,-0.889120 10.912967,1.004371 15.869458,1.002963 
	C39.267200,0.996317 62.664940,1.000000 86.531342,1.000000 
z"/>
<path fill="#7A8F6D" opacity="1.000000" stroke="none" 
	d="
M166.531342,1.000000 
	C158.616425,6.586024 149.714478,8.871003 139.816711,5.505145 
	C135.449921,4.020161 130.995712,2.792201 126.290604,1.223776 
	C139.354233,1.000000 152.708450,1.000000 166.531342,1.000000 
z"/>
<path fill="#4B6656" opacity="1.000000" stroke="none" 
	d="
M929.375000,1081.000000 
	C926.266052,1076.586670 924.544189,1071.794312 923.693542,1066.686523 
	C923.466431,1065.322876 923.494446,1063.947021 925.147156,1063.453491 
	C926.422180,1063.072754 927.541748,1063.561279 927.986023,1064.797974 
	C929.703918,1069.580078 931.340637,1074.391846 932.932678,1079.217285 
	C933.041077,1079.546021 932.532593,1080.078125 932.155518,1080.757812 
	C931.250000,1081.000000 930.500000,1081.000000 929.375000,1081.000000 
z"/>
<path fill="#4C6757" opacity="1.000000" stroke="none" 
	d="
M988.761108,1004.789185 
	C988.935791,1007.129822 988.935791,1009.207581 988.935791,1012.559937 
	C985.447937,1008.675903 983.799988,1005.325745 982.177185,1001.971191 
	C981.634155,1000.848938 981.590576,999.697632 982.837097,998.917786 
	C984.251343,998.033142 985.506897,998.491211 986.252258,999.764343 
	C988.811890,1004.136230 991.519226,1002.452087 994.311340,1000.108459 
	C996.849304,997.978210 999.395813,995.858276 1001.941040,993.736755 
	C1003.032959,992.826599 1004.183899,992.204346 1005.466248,993.373047 
	C1006.710205,994.506897 1006.503540,995.730469 1005.467957,996.855286 
	C1002.309265,1000.286377 998.624329,1003.102966 994.847351,1005.802185 
	C992.906677,1007.189026 991.433167,1005.529724 989.473633,1004.881470 
	C988.960754,1004.718567 988.773621,1004.622498 988.761108,1004.789185 
z"/>
<path fill="#4B6656" opacity="1.000000" stroke="none" 
	d="
M921.814453,881.774780 
	C922.154724,879.552795 922.371277,877.742371 922.754089,875.967834 
	C923.060242,874.548828 923.844604,873.511719 925.542114,873.872681 
	C927.176514,874.220337 927.535706,875.415161 927.432129,876.881531 
	C927.140503,881.008789 926.882874,885.138794 926.545776,889.262329 
	C926.413452,890.880737 925.723816,892.209961 923.842773,892.210083 
	C921.837708,892.210144 921.386047,890.650940 921.375122,889.124695 
	C921.358643,886.818176 921.619507,884.509583 921.814453,881.774780 
z"/>
<path fill="#4B6656" opacity="1.000000" stroke="none" 
	d="
M812.856995,597.298950 
	C813.063721,595.940674 813.486328,594.881409 814.684387,594.979858 
	C820.034302,595.419067 825.065430,597.171082 830.043457,599.039001 
	C831.099426,599.435242 831.230164,600.566772 830.921021,601.617859 
	C830.673645,602.458679 830.070312,603.436340 829.258911,603.205627 
	C823.695923,601.623596 817.396301,602.151550 812.856995,597.298950 
z"/>
<path fill="#4C6757" opacity="1.000000" stroke="none" 
	d="
M970.945923,625.810425 
	C973.064941,626.194092 975.365540,625.993469 974.843750,628.811523 
	C974.438782,630.998413 972.528137,630.965881 970.885132,630.798157 
	C967.105408,630.412048 963.332520,629.926270 959.577026,629.350220 
	C957.876831,629.089478 956.192932,628.429932 956.659729,626.183044 
	C957.062195,624.245728 958.692139,624.251343 960.222900,624.432617 
	C963.670227,624.841003 967.110046,625.312378 970.945923,625.810425 
z"/>
<path fill="#4C6757" opacity="1.000000" stroke="none" 
	d="
M761.141541,664.377686 
	C762.670959,669.643982 760.802429,674.503479 760.722900,679.445007 
	C760.696289,681.096313 759.805420,682.307678 757.849365,682.057678 
	C756.098938,681.833862 755.796570,680.547180 755.910767,679.129517 
	C756.256470,674.836121 756.587036,670.538330 757.089294,666.261780 
	C757.348450,664.055054 758.537781,662.920288 761.141541,664.377686 
z"/>
<path fill="#4B6656" opacity="1.000000" stroke="none" 
	d="
M911.153809,671.709229 
	C907.770569,674.261841 906.290588,673.221924 906.671265,669.534424 
	C907.080750,665.567810 907.749329,661.625305 908.393921,657.686829 
	C908.642334,656.168640 909.176819,654.596863 911.158081,654.796997 
	C913.522827,655.035889 913.430359,656.851624 913.192261,658.569336 
	C912.599243,662.847717 911.952393,667.118591 911.153809,671.709229 
z"/>
<path fill="#4C6757" opacity="1.000000" stroke="none" 
	d="
M934.832275,1041.072876 
	C932.053894,1044.238037 930.428894,1047.650757 929.169617,1051.276733 
	C928.646545,1052.782959 927.770203,1054.082886 925.909180,1053.506104 
	C924.014832,1052.919189 924.164124,1051.322632 924.528687,1049.804199 
	C925.553284,1045.536987 927.616211,1041.794434 930.458008,1038.482422 
	C931.318909,1037.479126 932.358521,1036.356445 933.835022,1037.086060 
	C935.352173,1037.835815 935.953735,1039.133789 934.832275,1041.072876 
z"/>
<path fill="#4B6656" opacity="1.000000" stroke="none" 
	d="
M713.412842,802.482117 
	C713.865845,804.828796 714.287842,806.764404 714.562561,808.720642 
	C714.747009,810.034668 714.096985,810.939697 712.766174,811.257935 
	C711.395081,811.585754 710.386169,810.954834 710.085144,809.713135 
	C708.960510,805.073608 707.919128,800.411987 706.962891,795.734802 
	C706.706421,794.480591 707.324890,793.454285 708.753845,793.257874 
	C710.078308,793.075867 711.097473,793.688721 711.465454,794.906189 
	C712.179565,797.268250 712.711609,799.685486 713.412842,802.482117 
z"/>
<path fill="#4C6757" opacity="1.000000" stroke="none" 
	d="
M788.626709,597.543945 
	C792.665466,596.432739 796.331055,595.411621 800.019043,594.478577 
	C801.372864,594.135986 802.790588,594.191895 803.293640,595.827332 
	C803.842773,597.612122 802.864624,598.682312 801.220764,599.156982 
	C797.405579,600.258423 793.578064,601.317932 789.749023,602.370422 
	C788.096313,602.824768 786.269897,603.228577 785.577881,601.088745 
	C784.868652,598.895630 786.711365,598.304749 788.626709,597.543945 
z"/>
<path fill="#4C6757" opacity="1.000000" stroke="none" 
	d="
M734.910278,759.322083 
	C734.994446,761.096802 734.101685,761.728394 732.843872,761.960632 
	C728.603699,762.743408 724.359131,763.502625 720.114624,764.262207 
	C718.696777,764.515930 717.425476,764.366821 716.859192,762.781433 
	C716.492798,761.755432 716.551514,760.549438 717.629700,760.209412 
	C722.956543,758.529236 728.280396,756.600464 734.024536,757.817322 
	C734.367737,757.890015 734.578857,758.585938 734.910278,759.322083 
z"/>
<path fill="#4C6757" opacity="1.000000" stroke="none" 
	d="
M1028.540527,960.976318 
	C1030.590454,956.986694 1032.475342,953.276123 1034.388062,949.579895 
	C1035.152466,948.102844 1036.221802,947.139282 1037.998047,947.990479 
	C1039.635376,948.775146 1039.307983,950.178040 1038.829224,951.442383 
	C1037.231812,955.660889 1035.086914,959.609314 1032.686157,963.420776 
	C1032.034790,964.454895 1031.266235,965.380005 1029.865601,964.817200 
	C1028.212524,964.152893 1027.525146,963.009399 1028.540527,960.976318 
z"/>
<path fill="#4C6757" opacity="1.000000" stroke="none" 
	d="
M925.946045,828.209045 
	C925.412720,825.876404 924.934265,823.951538 924.530518,822.011108 
	C924.187805,820.364746 924.536011,818.979553 926.421143,818.598755 
	C928.125671,818.254395 928.855652,819.480957 929.178894,820.804138 
	C930.196533,824.969971 931.157654,829.152466 932.000061,833.356689 
	C932.301575,834.861755 932.161072,836.493591 930.072449,836.681396 
	C928.177002,836.851868 927.508484,835.500732 927.158447,833.944031 
	C926.759827,832.171326 926.406311,830.388489 925.946045,828.209045 
z"/>
<path fill="#4C6757" opacity="1.000000" stroke="none" 
	d="
M775.339905,603.040894 
	C777.520447,605.358215 776.588013,606.862366 774.346130,607.765503 
	C770.507446,609.312012 766.609741,610.714539 762.718323,612.126465 
	C761.215515,612.671753 759.695740,612.798401 758.973938,610.938660 
	C758.230652,609.023621 759.542480,608.159424 761.021240,607.626465 
	C765.663574,605.953186 770.011658,603.396912 775.339905,603.040894 
z"/>
<path fill="#4C6757" opacity="1.000000" stroke="none" 
	d="
M1025.778076,855.366943 
	C1023.552979,856.467651 1022.245850,855.891113 1021.866089,853.750122 
	C1021.082214,849.331055 1020.351074,844.901917 1019.666687,840.466309 
	C1019.432251,838.946533 1020.066406,837.816895 1021.707947,837.613098 
	C1023.094727,837.440857 1024.036743,838.290771 1024.232910,839.521973 
	C1025.057861,844.700806 1027.119751,849.746216 1025.778076,855.366943 
z"/>
<path fill="#4C6757" opacity="1.000000" stroke="none" 
	d="
M747.639648,625.593750 
	C746.876709,627.840393 747.278564,631.025513 744.088928,630.278748 
	C741.050903,629.567444 742.466125,626.809509 742.713562,624.837036 
	C743.062500,622.055115 743.535278,619.282532 744.099426,616.535645 
	C744.606995,614.064270 746.498474,612.536133 748.745789,613.185669 
	C751.368774,613.943909 750.611328,616.150940 749.552490,618.043640 
	C748.313477,620.258423 748.132690,622.763123 747.639648,625.593750 
z"/>
<path fill="#4B6656" opacity="1.000000" stroke="none" 
	d="
M939.927551,622.041626 
	C942.710571,622.908081 947.233704,621.285767 946.767639,625.355347 
	C946.284485,629.573425 942.227051,626.998657 939.769287,626.983826 
	C936.989929,626.967102 934.210449,626.360657 931.438416,625.959839 
	C929.857727,625.731323 928.437866,625.155762 928.726013,623.180359 
	C929.010803,621.227600 930.593079,621.057861 932.131104,621.185852 
	C934.592407,621.390503 937.042542,621.728394 939.927551,622.041626 
z"/>
<path fill="#4B6656" opacity="1.000000" stroke="none" 
	d="
M752.834351,649.246826 
	C751.538025,646.908569 750.424133,644.887390 749.266113,642.891724 
	C748.378113,641.361450 746.720581,639.740479 748.913269,638.200684 
	C751.440918,636.425537 752.461426,638.878784 753.437134,640.419312 
	C755.285583,643.337585 756.967346,646.372864 758.535217,649.452698 
	C759.313660,650.981689 760.558716,652.919556 758.171997,654.155884 
	C755.809448,655.379700 755.019287,653.343262 754.126465,651.775879 
	C753.718811,651.060120 753.372253,650.309570 752.834351,649.246826 
z"/>
<path fill="#4C6757" opacity="1.000000" stroke="none" 
	d="
M921.448975,809.304688 
	C918.231262,804.996094 917.491882,800.029053 916.020569,795.342896 
	C915.557068,793.866516 915.546936,792.313354 917.546875,791.786316 
	C919.218018,791.345947 920.053528,792.397888 920.505249,793.714050 
	C921.896606,797.767883 923.290100,801.826233 924.483765,805.940552 
	C925.104736,808.080750 924.227173,809.496094 921.448975,809.304688 
z"/>
<path fill="#4B6656" opacity="1.000000" stroke="none" 
	d="
M753.192932,752.252075 
	C751.628174,754.591370 750.673279,756.992126 748.240967,758.105530 
	C747.171143,758.595276 746.035950,759.051086 745.044067,758.003540 
	C743.939697,756.837158 744.031616,755.506836 745.138306,754.487061 
	C747.997375,751.852417 749.472839,748.273743 751.692871,745.208435 
	C752.776245,743.712585 753.817810,741.921692 756.018433,743.420532 
	C757.983032,744.758667 756.833740,746.310669 755.991333,747.731934 
	C755.149414,749.152222 754.250244,750.538513 753.192932,752.252075 
z"/>
<path fill="#4B6656" opacity="1.000000" stroke="none" 
	d="
M998.230713,746.980164 
	C995.752502,749.004150 994.361694,748.175293 993.814392,745.612061 
	C992.950195,741.564941 992.170837,737.498596 991.433350,733.426270 
	C991.148438,731.852844 991.377563,730.351685 993.296692,729.942322 
	C995.337402,729.507019 995.880798,730.959900 996.189026,732.507080 
	C997.123779,737.199097 998.516541,741.821960 998.230713,746.980164 
z"/>
<path fill="#4C6757" opacity="1.000000" stroke="none" 
	d="
M762.697510,720.742676 
	C763.291199,718.728271 763.824036,716.922974 766.067932,717.594788 
	C768.218445,718.238770 767.921875,720.147217 767.494507,721.754456 
	C766.517273,725.429504 765.457458,729.087341 764.273743,732.700562 
	C763.751831,734.293762 762.894409,735.883301 760.684326,735.147888 
	C758.349121,734.370850 759.027710,732.725830 759.547485,731.084900 
	C760.596680,727.772339 761.582397,724.439697 762.697510,720.742676 
z"/>
<path fill="#4B6656" opacity="1.000000" stroke="none" 
	d="
M906.285522,727.814575 
	C903.448730,728.802124 902.374573,727.339417 902.694214,725.238281 
	C903.361572,720.852112 904.373413,716.513123 905.383301,712.187439 
	C905.710876,710.784363 906.809937,709.958801 908.379089,710.258728 
	C910.149780,710.596985 910.305542,712.025757 909.987915,713.330444 
	C908.827942,718.095276 908.696533,723.107483 906.285522,727.814575 
z"/>
<path fill="#4B6656" opacity="1.000000" stroke="none" 
	d="
M869.932617,603.743042 
	C866.862732,601.615601 867.453247,599.911194 870.412903,599.271790 
	C874.630432,598.360779 878.946594,597.731689 883.292480,598.453308 
	C884.778320,598.699951 886.447144,599.058777 886.366150,601.051575 
	C886.270020,603.415283 884.481384,603.281189 882.728821,603.320435 
	C878.583801,603.413391 874.441956,603.650330 869.932617,603.743042 
z"/>
<path fill="#4C6757" opacity="1.000000" stroke="none" 
	d="
M909.895752,636.335388 
	C909.664429,633.743958 909.367737,631.600281 909.285828,629.448486 
	C909.227051,627.907288 910.157593,626.930603 911.710999,626.835083 
	C913.169250,626.745544 913.677734,627.839050 913.963257,629.041687 
	C915.010864,633.454590 915.081482,637.933777 914.807861,642.428345 
	C914.722168,643.836304 914.288086,645.179077 912.601318,645.247803 
	C910.627319,645.328247 910.134460,643.895203 910.064453,642.262085 
	C909.986084,640.435913 909.967102,638.607239 909.895752,636.335388 
z"/>
<path fill="#4C6757" opacity="1.000000" stroke="none" 
	d="
M909.331177,692.402954 
	C909.326904,689.876099 909.228149,687.747009 909.166016,685.616943 
	C909.124390,684.190247 909.482239,682.939148 911.092102,682.600769 
	C912.793457,682.243164 913.416809,683.411682 913.871399,684.744690 
	C915.449890,689.373169 914.472229,693.866455 913.135681,698.333435 
	C912.729736,699.690063 911.988647,700.823242 910.356445,700.565918 
	C908.403503,700.257935 908.200806,698.796387 908.460938,697.182922 
	C908.697205,695.717651 908.986450,694.260925 909.331177,692.402954 
z"/>
<path fill="#4B6656" opacity="1.000000" stroke="none" 
	d="
M954.580688,955.604004 
	C953.528076,953.646606 951.558228,951.874634 954.256592,950.271973 
	C956.560791,948.903503 957.496277,951.032410 958.481689,952.474487 
	C960.537781,955.483398 962.528076,958.539917 964.457214,961.631897 
	C965.335388,963.039429 966.329346,964.678162 964.263550,965.917480 
	C962.261169,967.118774 961.209290,965.550903 960.266174,964.175110 
	C958.392700,961.442139 956.596741,958.655945 954.580688,955.604004 
z"/>
<path fill="#4C6757" opacity="1.000000" stroke="none" 
	d="
M680.942505,853.510742 
	C679.339661,847.827942 681.160522,842.836304 682.882935,837.853455 
	C683.333069,836.551147 684.237061,835.446350 685.888062,836.093506 
	C687.078369,836.560059 687.740845,837.557495 687.484680,838.857666 
	C686.591187,843.392212 685.696350,847.928772 684.657837,852.431335 
	C684.224121,854.311707 682.865112,854.628662 680.942505,853.510742 
z"/>
<path fill="#4C6757" opacity="1.000000" stroke="none" 
	d="
M927.522583,864.442871 
	C924.403564,862.322021 926.325317,859.802368 926.587341,857.520569 
	C926.927917,854.554382 927.548096,851.618958 928.088257,848.677612 
	C928.314392,847.446106 928.920654,846.490417 930.328796,846.401611 
	C931.235291,846.344421 931.908081,846.779602 932.387878,847.531128 
	C934.075928,850.174744 930.689941,862.845215 927.522583,864.442871 
z"/>
<path fill="#4B6656" opacity="1.000000" stroke="none" 
	d="
M1021.699951,823.091064 
	C1021.828491,825.462830 1022.372864,827.931702 1019.531128,828.155762 
	C1016.935913,828.360535 1017.187378,825.855774 1016.862549,824.172729 
	C1016.267090,821.086975 1015.699158,817.989685 1015.302734,814.873901 
	C1015.061890,812.981445 1014.430237,810.489990 1017.271057,810.086121 
	C1019.920227,809.709534 1019.771179,812.195374 1020.107849,813.877625 
	C1020.692139,816.796753 1021.137695,819.743652 1021.699951,823.091064 
z"/>
<path fill="#4C6757" opacity="1.000000" stroke="none" 
	d="
M943.522522,928.659180 
	C945.587708,932.056580 947.489807,935.152771 949.342834,938.278076 
	C950.126587,939.599731 950.837646,941.026917 949.065979,942.148804 
	C947.415527,943.193787 946.183899,942.323059 945.312500,940.973145 
	C943.163330,937.643860 941.084900,934.267883 939.029419,930.879517 
	C938.174194,929.469727 937.102783,927.924866 939.082825,926.572510 
	C941.354675,925.020752 942.303894,926.856018 943.522522,928.659180 
z"/>
<path fill="#4C6757" opacity="1.000000" stroke="none" 
	d="
M1024.262695,868.277466 
	C1024.406860,866.356384 1025.151733,865.379700 1026.785522,865.466614 
	C1028.186279,865.541199 1028.765869,866.628784 1028.988403,867.798462 
	C1029.730347,871.698181 1030.436035,875.606628 1031.041138,879.529480 
	C1031.290161,881.143250 1031.610718,883.084778 1029.281372,883.491516 
	C1027.020386,883.886292 1026.507568,882.077148 1026.206421,880.420166 
	C1025.496338,876.513428 1024.905273,872.585083 1024.262695,868.277466 
z"/>
<path fill="#4B6656" opacity="1.000000" stroke="none" 
	d="
M1030.699707,904.335327 
	C1030.053223,901.685974 1029.418701,899.443787 1028.989746,897.162842 
	C1028.689819,895.567505 1028.219604,893.642090 1030.675537,893.253967 
	C1032.545654,892.958435 1033.351929,894.270386 1033.749878,895.837097 
	C1034.689941,899.537292 1035.607910,903.243408 1036.483521,906.959229 
	C1036.885498,908.665222 1036.996826,910.446716 1034.836914,911.016602 
	C1032.455200,911.645020 1032.187866,909.655823 1031.704224,908.092285 
	C1031.361084,906.983032 1031.098145,905.848999 1030.699707,904.335327 
z"/>
<path fill="#4B6656" opacity="1.000000" stroke="none" 
	d="
M996.459106,664.110657 
	C996.186646,659.081177 997.398254,654.558411 998.020203,649.963379 
	C998.213440,648.535583 998.829529,647.283325 1000.495239,647.390869 
	C1002.464966,647.518188 1002.931580,649.127869 1002.737122,650.657471 
	C1002.193420,654.934814 1001.612915,659.224304 1000.686401,663.429565 
	C1000.167725,665.783508 998.498108,666.190552 996.459106,664.110657 
z"/>
<path fill="#4B6656" opacity="1.000000" stroke="none" 
	d="
M969.649048,974.014465 
	C975.521545,977.148865 976.947998,983.177063 979.255432,988.454407 
	C979.953857,990.051880 977.231445,991.578003 975.899597,990.062317 
	C972.287537,985.951599 969.610535,981.148499 967.905151,975.903076 
	C967.775757,975.504944 968.848206,974.716003 969.649048,974.014465 
z"/>
<path fill="#4C6757" opacity="1.000000" stroke="none" 
	d="
M968.782959,1016.722412 
	C972.638062,1014.430603 976.205261,1012.323975 979.812744,1010.288635 
	C981.194519,1009.509033 982.669495,1009.133057 983.725525,1010.827454 
	C984.825134,1012.591919 983.682739,1013.673096 982.339478,1014.465393 
	C978.772705,1016.569153 975.167725,1018.610718 971.535217,1020.598999 
	C970.376709,1021.233032 969.016296,1021.830688 967.954956,1020.425537 
	C966.987244,1019.144348 967.336426,1017.942505 968.782959,1016.722412 
z"/>
<path fill="#4C6757" opacity="1.000000" stroke="none" 
	d="
M997.741394,767.310059 
	C997.305664,764.769470 996.915894,762.642639 996.594177,760.505554 
	C996.373596,759.040161 996.714355,757.809082 998.404541,757.496094 
	C999.760132,757.245056 1000.807556,757.902893 1001.074280,759.162659 
	C1002.036621,763.708069 1002.913208,768.274170 1003.688599,772.855042 
	C1003.903320,774.123840 1003.120056,775.118958 1001.790039,775.379944 
	C1000.344666,775.663635 999.587219,774.657776 999.237061,773.523193 
	C998.650635,771.623413 998.278625,769.657532 997.741394,767.310059 
z"/>
<path fill="#4B6656" opacity="1.000000" stroke="none" 
	d="
M1005.492798,786.909546 
	C1006.192688,783.238098 1008.038025,782.446289 1009.882324,785.480652 
	C1012.111694,789.148682 1013.687683,793.223206 1015.430054,797.173218 
	C1016.093689,798.677795 1015.924377,800.247437 1014.124756,800.896545 
	C1012.455750,801.498596 1011.719971,800.147827 1011.135681,798.948181 
	C1009.244263,795.064941 1007.419250,791.149292 1005.492798,786.909546 
z"/>
<path fill="#4C6757" opacity="1.000000" stroke="none" 
	d="
M702.813843,778.077271 
	C701.743835,774.159180 701.712524,770.761108 704.174622,767.758972 
	C704.995178,766.758301 705.857544,765.412659 707.437317,766.303040 
	C708.786377,767.063477 709.110413,768.493713 708.395447,769.774597 
	C706.689209,772.831360 707.361206,775.852417 708.064148,778.970947 
	C708.479858,780.815247 709.488098,783.250854 706.535522,783.861145 
	C703.515076,784.485535 703.859131,781.638184 703.196045,779.936035 
	C703.017883,779.478577 702.988953,778.963013 702.813843,778.077271 
z"/>
<path fill="#4C6757" opacity="1.000000" stroke="none" 
	d="
M915.572937,746.507690 
	C915.893982,749.431152 918.697021,753.159790 914.938416,754.151123 
	C910.913391,755.212646 911.973816,750.446716 910.928833,748.199280 
	C909.750671,745.665283 908.852417,743.000793 907.841553,740.389526 
	C907.310669,739.018188 907.314880,737.765503 908.851746,737.044800 
	C910.420898,736.309021 911.426025,737.188843 912.038513,738.470337 
	C913.243591,740.991943 914.318542,743.575745 915.572937,746.507690 
z"/>
<path fill="#4C6757" opacity="1.000000" stroke="none" 
	d="
M705.664429,819.148682 
	C707.486755,818.473572 708.563782,819.051636 709.127502,820.481140 
	C709.655518,821.820129 708.718018,822.686707 707.829773,823.423035 
	C704.365417,826.295105 700.364441,828.277161 696.331177,830.188538 
	C694.959106,830.838806 693.715637,830.646973 692.965759,829.191772 
	C692.147461,827.603821 693.203979,826.679565 694.360840,825.963745 
	C698.010803,823.705322 701.701416,821.512756 705.664429,819.148682 
z"/>
<path fill="#4C6757" opacity="1.000000" stroke="none" 
	d="
M840.397095,604.971802 
	C840.047546,602.255371 841.525452,601.932617 843.404602,601.919128 
	C847.374207,601.890747 851.343384,601.791077 855.312256,601.697815 
	C856.720886,601.664612 858.022400,601.791626 858.406372,603.469238 
	C858.719177,604.836060 858.062622,605.925476 856.810669,606.128662 
	C851.336060,607.016907 845.797180,608.459473 840.397095,604.971802 
z"/>
<path fill="#4C6757" opacity="1.000000" stroke="none" 
	d="
M946.118164,1032.802002 
	C944.397217,1033.499756 943.138916,1033.468994 942.495972,1031.857056 
	C941.983521,1030.572510 942.620239,1029.582642 943.629395,1028.840576 
	C947.433716,1026.043457 951.870728,1024.532959 956.178284,1022.774292 
	C957.430237,1022.263062 958.471008,1022.750000 959.042175,1024.014526 
	C959.741089,1025.561890 959.044678,1026.602661 957.689453,1027.264771 
	C953.950439,1029.091553 950.187622,1030.869751 946.118164,1032.802002 
z"/>
<path fill="#4C6757" opacity="1.000000" stroke="none" 
	d="
M901.783203,613.229431 
	C899.751953,611.274597 897.978821,609.554626 896.135925,607.912903 
	C895.025574,606.923706 894.390808,605.851501 895.318359,604.487793 
	C896.417908,602.871338 897.864136,603.171631 899.182068,604.155334 
	C902.638855,606.735229 905.642822,609.779114 908.056763,613.363892 
	C908.976807,614.730164 910.088867,616.277283 908.125244,617.642944 
	C906.289917,618.919373 905.083130,617.768799 904.053528,616.290161 
	C903.394714,615.344055 902.693909,614.427185 901.783203,613.229431 
z"/>
<path fill="#4B6656" opacity="1.000000" stroke="none" 
	d="
M996.712524,675.380005 
	C997.645203,681.071594 995.173889,685.922180 993.897461,691.000000 
	C993.587219,692.234192 992.525024,692.863831 991.174133,692.568298 
	C990.047119,692.321777 989.380615,691.476013 989.548828,690.405151 
	C990.321045,685.488586 991.230347,680.585449 993.107422,675.949707 
	C993.737976,674.392517 995.110779,674.438599 996.712524,675.380005 
z"/>
<path fill="#4C6757" opacity="1.000000" stroke="none" 
	d="
M992.770874,719.741577 
	C990.590088,721.080078 989.272278,720.365601 988.704041,718.407593 
	C987.445435,714.070984 986.641357,709.652954 987.165894,705.105835 
	C987.328064,703.700073 987.885620,702.430969 989.563293,702.435730 
	C990.937439,702.439575 991.814087,703.418701 991.747498,704.691040 
	C991.485535,709.692871 993.744385,714.466003 992.770874,719.741577 
z"/>
<path fill="#4C6757" opacity="1.000000" stroke="none" 
	d="
M1039.323486,920.893677 
	C1041.785522,925.610229 1041.995239,930.420654 1041.931519,935.264954 
	C1041.910767,936.849182 1041.524902,938.459106 1039.554199,938.437500 
	C1037.613525,938.416260 1037.317627,936.791809 1037.138672,935.229187 
	C1036.703125,931.427795 1036.243774,927.629272 1035.803223,923.828491 
	C1035.519775,921.384155 1036.043091,919.746521 1039.323486,920.893677 
z"/>
<path fill="#4C6757" opacity="1.000000" stroke="none" 
	d="
M934.303101,918.357422 
	C931.028625,917.048157 924.637146,906.039368 925.307068,903.363770 
	C925.769409,901.516907 926.991821,900.991455 928.680359,901.863220 
	C930.016541,902.553040 936.026917,915.766602 935.681641,917.313049 
	C935.597900,917.688354 934.975037,917.943237 934.303101,918.357422 
z"/>
<path fill="#4B6656" opacity="1.000000" stroke="none" 
	d="
M668.348938,877.699768 
	C666.731445,876.689514 667.124756,875.178040 666.963562,873.464600 
	C671.248413,871.803101 674.946106,869.793884 676.979553,865.500366 
	C677.648132,864.088684 678.748169,862.889526 680.542358,863.923218 
	C682.256104,864.910645 681.900574,866.504639 681.215149,867.876892 
	C678.607910,873.096619 674.468262,876.425659 668.348938,877.699768 
z"/>
<path fill="#4C6757" opacity="1.000000" stroke="none" 
	d="
M762.890503,700.394653 
	C761.756592,698.125061 760.745422,696.228638 759.821289,694.290649 
	C759.193115,692.973328 759.182495,691.708679 760.643188,690.860718 
	C761.936035,690.110229 762.909424,690.743896 763.614075,691.754517 
	C766.077759,695.287598 768.546326,698.858154 768.875244,703.336426 
	C769.004822,705.100403 769.264832,707.350708 766.686707,707.558105 
	C764.430359,707.739685 764.389099,705.657898 763.998413,704.076599 
	C763.721985,702.958008 763.369080,701.858276 762.890503,700.394653 
z"/>
<path fill="#4C6757" opacity="1.000000" stroke="none" 
	d="
M984.582031,630.790222 
	C987.475830,625.426147 991.581665,628.827087 995.096008,629.201172 
	C998.163269,629.527771 999.822937,632.133362 1000.506470,635.018738 
	C1000.957581,636.923096 998.786255,638.433411 998.057922,637.474670 
	C994.585449,632.903931 988.588440,634.246643 984.582031,630.790222 
z"/>
<path fill="#4C6757" opacity="1.000000" stroke="none" 
	d="
M1012.129883,983.749084 
	C1014.899048,980.253784 1017.473694,977.015137 1020.116516,973.833008 
	C1021.244873,972.474304 1022.687561,971.449890 1024.375610,972.830872 
	C1026.013306,974.170654 1024.848267,975.600220 1023.962952,976.729980 
	C1021.516296,979.852417 1019.142517,983.072266 1016.364441,985.882446 
	C1013.982788,988.291504 1011.863586,988.366089 1012.129883,983.749084 
z"/>
<path fill="#4C6757" opacity="1.000000" stroke="none" 
	d="
M911.979126,774.902893 
	C911.999695,772.280762 911.955688,770.124329 912.064514,767.975647 
	C912.149536,766.297729 912.343506,764.351013 914.619324,764.468323 
	C916.880371,764.584900 916.847168,766.587891 916.880554,768.234375 
	C916.951050,771.711609 916.937988,775.190918 916.925842,778.669312 
	C916.919861,780.380005 916.801453,782.304688 914.611755,782.406860 
	C912.334839,782.513184 912.274170,780.476501 912.090515,778.846375 
	C911.961182,777.698669 912.010803,776.530823 911.979126,774.902893 
z"/>
<path fill="#4C6757" opacity="1.000000" stroke="none" 
	d="
M919.250122,621.813416 
	C917.397644,625.998108 914.408142,624.466370 912.226074,623.057800 
	C910.490356,621.937439 911.222595,619.814636 913.317871,619.416382 
	C915.498901,619.001892 918.083862,618.518677 919.250122,621.813416 
z"/>
<path fill="#B3993E" opacity="1.000000" stroke="none" 
	d="
M1461.864624,921.768311 
	C1460.169067,923.219666 1458.540283,924.495850 1455.711914,924.637451 
	C1457.634644,922.481873 1459.514404,921.527039 1461.864624,921.768311 
z"/>
<path fill="#B3993E" opacity="1.000000" stroke="none" 
	d="
M1453.064941,925.379761 
	C1453.285156,925.348755 1453.406372,925.410645 1453.527710,925.472534 
	C1453.340454,925.472534 1453.153198,925.472595 1453.064941,925.379761 
z"/>
<path fill="#768E71" opacity="1.000000" stroke="none" 
	d="
M1471.655762,915.232971 
	C1471.238525,915.796082 1470.533569,916.640015 1470.640625,915.014771 
	C1471.076538,914.870239 1471.299194,914.897339 1471.655762,915.232971 
z"/>
<path fill="#768E71" opacity="1.000000" stroke="none" 
	d="
M1471.087280,915.018677 
	C1471.377930,914.439880 1472.034668,913.213989 1471.992676,915.300659 
	C1471.633423,915.425659 1471.476929,915.309937 1471.087280,915.018677 
z"/>
<path fill="#768E71" opacity="1.000000" stroke="none" 
	d="
M988.989258,1004.993103 
	C988.935791,1005.052063 989.031006,1004.760315 989.089478,1004.787476 
	C989.147888,1004.814697 989.042725,1004.934143 988.989258,1004.993103 
z"/>
</svg>